<?xml version="1.0" encoding="UTF-8"?>
<svg id="Layer_1" data-name="Layer 1" xmlns="http://www.w3.org/2000/svg" viewBox="0 0 198.43 198.43">
  <path id="Shape" d="m91.84,188.44v-91c47.78.09,79.99,28.36,96.64,84.8.13.46.2.93.2,1.41,0,2.76-2.24,5-5,5l-91.84-.21Zm0-91v91c-47.45-3.32-84.14-45.52-82-91h82Zm0-4H9.84C11.84,51.77,48.11,12.93,91.84,10.09v83.35Z" style="fill: #142a48; fill-rule: evenodd;"/>
  <path id="Path" d="m96.01,93.04V9.79c46.24-.67,76.57,25.09,91,77.26.72,2.65-.83,5.38-3.47,6.12-.44.12-.89.18-1.34.18l-86.19-.31Z" style="fill: #fbba2a; fill-rule: evenodd;"/>
  <path id="Path-2" data-name="Path" d="m96.01,93.34v-50c34.55,1.48,64.39,15.37,89.52,41.66,1.3,1.45,1.64,3.53.87,5.32s-2.51,2.97-4.46,3.02h-85.93Z" style="fill: #f7a60c; fill-rule: evenodd;"/>
</svg>